<svg width="60" height="40" viewBox="0 0 60 40" fill="none" xmlns="http://www.w3.org/2000/svg">
<path d="M28.3472 4.62424C28.5306 4.3095 28.7933 4.04836 29.1092 3.86686C29.425 3.68536 29.7829 3.58984 30.1472 3.58984C30.5115 3.58984 30.8694 3.68536 31.1852 3.86686C31.5011 4.04836 31.7638 4.3095 31.9472 4.62424L36.6055 12.6209L45.6522 14.5809C46.008 14.6582 46.3374 14.8275 46.6075 15.0718C46.8775 15.3161 47.0788 15.6269 47.1913 15.9733C47.3037 16.3196 47.3235 16.6894 47.2485 17.0458C47.1735 17.4021 47.0064 17.7326 46.7639 18.0042L40.5972 24.9059L41.5305 34.1142C41.5673 34.4768 41.5084 34.8427 41.3596 35.1754C41.2108 35.5081 40.9773 35.7959 40.6824 36.0102C40.3876 36.2244 40.0417 36.3575 39.6793 36.3962C39.3169 36.435 38.9507 36.378 38.6172 36.2309L30.1472 32.4976L21.6772 36.2309C21.3437 36.378 20.9775 36.435 20.6151 36.3962C20.2527 36.3575 19.9068 36.2244 19.612 36.0102C19.3171 35.7959 19.0836 35.5081 18.9348 35.1754C18.786 34.8427 18.727 34.4768 18.7639 34.1142L19.6972 24.9059L13.5305 18.0059C13.2876 17.7343 13.1201 17.4037 13.0449 17.0471C12.9696 16.6905 12.9893 16.3205 13.1018 15.9738C13.2143 15.6272 13.4157 15.3162 13.686 15.0717C13.9563 14.8273 14.286 14.6581 14.6422 14.5809L23.6889 12.6209L28.3472 4.62424Z" fill="#362C49"/>
</svg>
