<?xml version="1.0" encoding="UTF-8"?>
<svg xmlns="http://www.w3.org/2000/svg">
  <symbol id="SymbolMark">
    <path d="M33.89,5.62l2.74-2.74h-6.28c-3.02-1.83-6.56-2.88-10.34-2.88s-7.33,1.05-10.34,2.88H3.46l2.7,2.7C2.36,9.22,0,14.33,0,20c0,2.97.65,5.79,1.81,8.32h29.52c.62,0,1.12.5,1.12,1.12s-.5,1.12-1.12,1.12H3.02c3.53,5.67,9.81,9.44,16.98,9.44,11.05,0,20-8.95,20-20,0-5.65-2.35-10.75-6.11-14.38ZM25.98,2.88c.62,0,1.12.5,1.12,1.12s-.5,1.12-1.12,1.12-1.12-.5-1.12-1.12.5-1.12,1.12-1.12ZM14.02,2.88c.62,0,1.12.5,1.12,1.12s-.5,1.12-1.12,1.12-1.12-.5-1.12-1.12.5-1.12,1.12-1.12ZM20.1,22.76c-4.73-2.73-7.64-7.77-7.64-13.23l7.64-4.41,7.64,4.41c0,5.46-2.91,10.5-7.64,13.23Z"/>
  </symbol>
</svg>